<?xml version="1.0" encoding="UTF-8" standalone="no"?>
<!DOCTYPE svg PUBLIC "-//W3C//DTD SVG 1.1//EN" "http://www.w3.org/Graphics/SVG/1.1/DTD/svg11.dtd">
<svg width="100%" height="100%" viewBox="0 0 2267 826" version="1.1" xmlns="http://www.w3.org/2000/svg" xmlns:xlink="http://www.w3.org/1999/xlink" xml:space="preserve" xmlns:serif="http://www.serif.com/" style="fill-rule:evenodd;clip-rule:evenodd;stroke-linejoin:round;stroke-miterlimit:1.41421;">
    <g transform="matrix(1,0,0,1,-97.6894,-1249.77)">
        <g transform="matrix(-6.82538,0,0,6.82538,10294.8,-41422.5)">
            <rect x="1481" y="6306" width="13" height="67" style="fill:rgb(140,214,234);"/>
        </g>
        <g transform="matrix(-6.82538,0,0,6.82538,10656.5,-41518)">
            <rect x="1508" y="6306" width="12" height="81" style="fill:rgb(140,214,234);"/>
        </g>
        <g transform="matrix(-6.82538,0,0,6.82538,11025.1,-41606.8)">
            <rect x="1535" y="6306" width="12" height="94" style="fill:rgb(40,124,161);"/>
        </g>
        <g transform="matrix(-6.82538,0,0,6.82538,11380,-41422.5)">
            <rect x="1561" y="6306" width="12" height="67" style="fill:rgb(140,214,234);"/>
        </g>
        <g transform="matrix(-6.82538,0,0,6.82538,11755.4,-41518)">
            <rect x="1588" y="6306" width="13" height="81" style="fill:rgb(140,214,234);"/>
        </g>
        <g transform="matrix(-6.82538,0,0,6.82538,12117.2,-41606.8)">
            <rect x="1615" y="6306" width="12" height="94" style="fill:rgb(40,124,161);"/>
        </g>
        <g transform="matrix(-6.82538,0,0,6.82538,12478.9,-41518)">
            <rect x="1641" y="6306" width="13" height="81" style="fill:rgb(140,214,234);"/>
        </g>
        <g transform="matrix(-6.82538,0,0,6.82538,13209.2,-41606.8)">
            <rect x="1695" y="6306" width="12" height="94" style="fill:rgb(40,124,161);"/>
        </g>
        <g transform="matrix(-6.82538,0,0,6.82538,12847.5,-41422.5)">
            <rect x="1668" y="6306" width="13" height="67" style="fill:rgb(140,214,234);"/>
        </g>
        <g transform="matrix(-6.82538,0,0,6.82538,13564.2,-41518)">
            <rect x="1721" y="6306" width="12" height="81" style="fill:rgb(140,214,234);"/>
        </g>
        <g transform="matrix(-6.82538,0,0,6.82538,13932.7,-41606.8)">
            <rect x="1748" y="6306" width="12" height="94" style="fill:rgb(40,124,161);"/>
        </g>
        <g transform="matrix(-6.82538,0,0,6.82538,14301.3,-41695.5)">
            <rect x="1775" y="6306" width="12" height="107" style="fill:rgb(6,95,135);"/>
        </g>
        <g transform="matrix(-6.82538,0,0,6.82538,14656.2,-41791.1)">
            <rect x="1801" y="6306" width="12" height="121" style="fill:rgb(6,95,135);"/>
        </g>
    </g>
</svg>
