<?xml version="1.0" encoding="UTF-8" standalone="no"?>
<!DOCTYPE svg PUBLIC "-//W3C//DTD SVG 1.1//EN" "http://www.w3.org/Graphics/SVG/1.1/DTD/svg11.dtd">
<svg width="100%" height="100%" viewBox="0 0 2269 1002" version="1.1" xmlns="http://www.w3.org/2000/svg" xmlns:xlink="http://www.w3.org/1999/xlink" xml:space="preserve" xmlns:serif="http://www.serif.com/" style="fill-rule:evenodd;clip-rule:evenodd;stroke-linejoin:round;stroke-miterlimit:1.41421;">
    <g transform="matrix(1,0,0,1,-80.3846,-1141.44)">
        <g transform="matrix(-6.81197,0,0,6.81197,5529.96,-41269.9)">
            <rect x="787" y="6306" width="13" height="67" style="fill:rgb(140,214,234);"/>
        </g>
        <g transform="matrix(-6.81197,0,0,6.81197,5897.8,-41092.8)">
            <rect x="814" y="6306" width="13" height="41" style="fill:rgb(140,214,234);"/>
        </g>
        <g transform="matrix(-6.81197,0,0,6.81197,6258.84,-41181.3)">
            <rect x="841" y="6306" width="12" height="54" style="fill:rgb(140,214,234);"/>
        </g>
        <g transform="matrix(-6.81197,0,0,6.81197,6619.87,-41338)">
            <rect x="867" y="6306" width="13" height="77" style="fill:rgb(140,214,234);"/>
        </g>
        <g transform="matrix(-6.81197,0,0,6.81197,6987.72,-41365.2)">
            <rect x="894" y="6306" width="13" height="81" style="fill:rgb(40,124,161);"/>
        </g>
        <g transform="matrix(-6.81197,0,0,6.81197,7348.75,-41453.8)">
            <rect x="921" y="6306" width="12" height="94" style="fill:rgb(40,124,161);"/>
        </g>
        <g transform="matrix(-6.81197,0,0,6.81197,7709.79,-41365.2)">
            <rect x="947" y="6306" width="13" height="81" style="fill:rgb(140,214,234);"/>
        </g>
        <g transform="matrix(-6.81197,0,0,6.81197,8438.67,-41453.8)">
            <rect x="1001" y="6306" width="12" height="94" style="fill:rgb(40,124,161);"/>
        </g>
        <g transform="matrix(-6.81197,0,0,6.81197,8077.63,-41269.9)">
            <rect x="974" y="6306" width="13" height="67" style="fill:rgb(140,214,234);"/>
        </g>
        <g transform="matrix(-6.81197,0,0,6.81197,8799.7,-41726.3)">
            <rect x="1027" y="6306" width="13" height="134" style="fill:rgb(6,95,135);"/>
        </g>
        <g transform="matrix(-6.81197,0,0,6.81197,9167.55,-41814.8)">
            <rect x="1054" y="6306" width="13" height="147" style="fill:rgb(6,95,135);"/>
        </g>
        <g transform="matrix(-6.81197,0,0,6.81197,9528.58,-41542.4)">
            <rect x="1081" y="6306" width="12" height="107" style="fill:rgb(6,95,135);"/>
        </g>
        <g transform="matrix(-6.81197,0,0,6.81197,9889.62,-41338)">
            <rect x="1107" y="6306" width="13" height="77" style="fill:rgb(140,214,234);"/>
        </g>
    </g>
</svg>
