<?xml version="1.0" encoding="UTF-8" standalone="no"?>
<!DOCTYPE svg PUBLIC "-//W3C//DTD SVG 1.1//EN" "http://www.w3.org/Graphics/SVG/1.1/DTD/svg11.dtd">
<svg width="100%" height="100%" viewBox="0 0 551 550" version="1.1" xmlns="http://www.w3.org/2000/svg" xmlns:xlink="http://www.w3.org/1999/xlink" xml:space="preserve" xmlns:serif="http://www.serif.com/" style="fill-rule:evenodd;clip-rule:evenodd;stroke-linejoin:round;stroke-miterlimit:1.41421;">
    <g transform="matrix(1,0,0,1,-965.156,-1423.1)">
        <g transform="matrix(8.33333,0,0,8.33333,1259.12,1423.1)">
            <path d="M0,30.638L30.638,30.638C29.519,14.228 16.41,1.12 0,0L0,30.638Z" style="fill:rgb(140,214,234);fill-rule:nonzero;"/>
        </g>
        <g transform="matrix(8.33333,0,0,8.33333,1442.96,1716.34)">
            <path d="M0,20.088C4.941,14.728 8.137,7.732 8.664,0L-20.088,0L0,20.088Z" style="fill:rgb(237,241,245);fill-rule:nonzero;"/>
        </g>
        <g transform="matrix(0,-8.33333,-8.33333,0,1132.2,1522.48)">
            <path d="M-20.045,-10.68L11.926,-10.68C10.755,6.483 -3.528,20.045 -20.987,20.045C-29.28,20.045 -36.854,16.978 -42.651,11.926L-20.045,-10.68Z" style="fill:rgb(40,124,161);fill-rule:nonzero;"/>
        </g>
        <g transform="matrix(-5.89256,5.89256,5.89256,5.89256,1324.71,1935.05)">
            <path d="M-9.774,-25.067L19.92,-25.067C19.392,-17.395 16.206,-9.872 10.342,-4.007C4.718,1.617 -2.432,4.777 -9.774,5.489L-9.774,-25.067Z" style="fill:rgb(138,138,138);fill-rule:nonzero;"/>
        </g>
    </g>
</svg>
