<?xml version="1.0" encoding="UTF-8" standalone="no"?>
<!DOCTYPE svg PUBLIC "-//W3C//DTD SVG 1.1//EN" "http://www.w3.org/Graphics/SVG/1.1/DTD/svg11.dtd">
<svg width="100%" height="100%" viewBox="0 0 551 551" version="1.1" xmlns="http://www.w3.org/2000/svg" xmlns:xlink="http://www.w3.org/1999/xlink" xml:space="preserve" xmlns:serif="http://www.serif.com/" style="fill-rule:evenodd;clip-rule:evenodd;stroke-linejoin:round;stroke-miterlimit:1.41421;">
    <g transform="matrix(1,0,0,1,-965.156,-1478.93)">
        <g transform="matrix(8.33333,0,0,8.33333,1220.81,1478.94)">
            <path d="M0,30.678L-30.678,30.678C-29.558,14.246 -16.432,1.12 0,0L0,30.678Z" style="fill:rgb(140,214,234);fill-rule:nonzero;"/>
        </g>
        <g transform="matrix(8.33333,0,0,8.33333,1031.44,1579.1)">
            <path d="M0,42.522C-4.537,37.269 -7.453,30.576 -7.954,23.216L27.28,23.216L27.28,-12.02C45.362,-10.787 59.451,4.982 57.934,23.696C56.635,39.713 43.64,52.645 27.619,53.88C19.038,54.542 11.09,51.915 4.883,47.137C4.311,46.697 3.772,46.214 3.247,45.718L1.51,44.075C0.984,43.579 0.472,43.069 0,42.522" style="fill:rgb(40,124,161);fill-rule:nonzero;"/>
        </g>
    </g>
</svg>
