<?xml version="1.0" encoding="UTF-8" standalone="no"?>
<!DOCTYPE svg PUBLIC "-//W3C//DTD SVG 1.1//EN" "http://www.w3.org/Graphics/SVG/1.1/DTD/svg11.dtd">
<svg width="100%" height="100%" viewBox="0 0 474 500" version="1.1" xmlns="http://www.w3.org/2000/svg" xmlns:xlink="http://www.w3.org/1999/xlink" xml:space="preserve" xmlns:serif="http://www.serif.com/" style="fill-rule:evenodd;clip-rule:evenodd;stroke-linejoin:round;stroke-miterlimit:1.41421;">
    <g transform="matrix(1,0,0,1,-1003.44,-1700)">
        <g transform="matrix(8.33333,0,0,8.33333,1426.16,1862.75)">
            <path d="M0,38.126L-7.358,38.126L-7.358,0.806C-7.358,0.361 -6.996,0 -6.552,0L-0.807,0C-0.362,0 0,0.361 0,0.806L0,38.126ZM-18.572,38.126L-25.93,38.126L-25.93,17.715C-25.93,17.27 -25.568,16.908 -25.124,16.908L-19.379,16.908C-18.934,16.908 -18.572,17.27 -18.572,17.715L-18.572,38.126ZM-37.145,38.126L-44.502,38.126L-44.502,27.555C-44.502,27.11 -44.141,26.749 -43.695,26.749L-37.95,26.749C-37.506,26.749 -37.145,27.11 -37.145,27.555L-37.145,38.126ZM4.914,38.126L2.344,38.126L2.344,0.806C2.344,-0.931 0.931,-2.344 -0.807,-2.344L-6.552,-2.344C-8.289,-2.344 -9.702,-0.931 -9.702,0.806L-9.702,38.126L-16.229,38.126L-16.229,17.715C-16.229,15.978 -17.642,14.564 -19.379,14.564L-25.123,14.564C-26.86,14.564 -28.273,15.978 -28.273,17.715L-28.273,38.126L-34.8,38.126L-34.8,27.555C-34.8,25.818 -36.213,24.405 -37.95,24.405L-43.695,24.405C-45.433,24.405 -46.846,25.818 -46.846,27.555L-46.846,38.126L-49.555,38.126C-50.202,38.126 -50.727,38.65 -50.727,39.298C-50.727,39.945 -50.202,40.47 -49.555,40.47L4.914,40.47C5.562,40.47 6.086,39.945 6.086,39.298C6.086,38.65 5.562,38.126 4.914,38.126" style="fill:rgb(6,95,135);fill-rule:nonzero;"/>
        </g>
        <g transform="matrix(8.33333,0,0,8.33333,1445.67,1961.51)">
            <path d="M0,-30.149C0.017,-30.469 -0.096,-30.794 -0.34,-31.038C-0.585,-31.282 -0.91,-31.395 -1.229,-31.378C-1.248,-31.379 -1.267,-31.381 -1.286,-31.381L-8.376,-31.381C-9.023,-31.381 -9.548,-30.857 -9.548,-30.21C-9.548,-29.562 -9.023,-29.038 -8.376,-29.038L-3.998,-29.038L-15.583,-17.453L-19.952,-21.821C-20.172,-22.041 -20.47,-22.165 -20.78,-22.165C-21.091,-22.165 -21.39,-22.041 -21.609,-21.821L-42.676,-0.754C-43.134,-0.297 -43.134,0.445 -42.676,0.903C-42.447,1.131 -42.147,1.246 -41.847,1.246C-41.547,1.246 -41.247,1.131 -41.019,0.902L-20.78,-19.336L-16.412,-14.967C-15.954,-14.509 -15.212,-14.509 -14.754,-14.967L-2.341,-27.38L-2.341,-23.418C-2.341,-22.771 -1.816,-22.246 -1.169,-22.246C-0.521,-22.246 0.003,-22.771 0.003,-23.418L0.003,-30.092C0.003,-30.111 0.001,-30.13 0,-30.149" style="fill:rgb(6,95,135);fill-rule:nonzero;"/>
        </g>
    </g>
</svg>
