<?xml version="1.0" encoding="UTF-8" standalone="no"?>
<!DOCTYPE svg PUBLIC "-//W3C//DTD SVG 1.1//EN" "http://www.w3.org/Graphics/SVG/1.1/DTD/svg11.dtd">
<svg width="100%" height="100%" viewBox="0 0 512 284" version="1.1" xmlns="http://www.w3.org/2000/svg" xmlns:xlink="http://www.w3.org/1999/xlink" xml:space="preserve" xmlns:serif="http://www.serif.com/" style="fill-rule:evenodd;clip-rule:evenodd;stroke-linejoin:round;stroke-miterlimit:1.41421;">
    <g transform="matrix(1,0,0,1,-0.000666001,-114.103)">
        <g>
            <path d="M174.231,297.92C173.681,297.548 164.492,289.28 162.21,286.352C159.978,283.391 155.674,282.614 153.425,281.433C151.16,280.268 136.211,275.334 132.619,277.89C129.076,280.446 124.19,282 122.297,277.89C120.436,273.748 119.498,273.166 116.877,272.583C114.256,272.001 115.566,268.878 115.388,266.128C115.178,263.361 113.69,260.417 111.813,262.391C109.936,264.365 103.562,269.477 102.639,266.888C101.701,264.348 97.187,253.751 103.95,251.761C110.68,249.82 116.311,250.968 118.009,252.748C119.692,254.495 120.986,259.43 123.074,258.831C125.144,258.233 124.012,254.479 124.756,251.373C125.5,248.25 130.403,244.108 132.619,239.805C134.868,235.453 135.24,232.913 138.039,231.732C140.887,230.567 142.375,228.997 144.996,227.023C147.633,225.05 151.726,223.302 153.263,222.299C154.768,221.296 161.499,217.963 163.731,218.562C165.98,219.16 167.469,218.368 165.608,215.035C163.731,211.702 161.304,201.671 157.745,197.173C154.186,192.675 153.797,191.462 152.115,187.175C150.432,182.822 148.539,179.101 147.229,182.046C145.918,184.99 143.119,188.922 141.615,185.185C140.126,181.447 140.304,181.625 138.427,179.878C136.567,178.114 135.046,177.71 132.441,176.917C129.82,176.124 127.199,177.127 127.377,179.668C127.555,182.224 124.918,186.77 126.633,190.119C128.315,193.468 129.82,196.995 127.555,198.176C125.322,199.341 127.555,206.428 125.322,206.217C123.074,206.039 121.957,206.428 121.957,203.855C121.957,201.331 123.074,197.4 118.932,197.4C114.822,197.4 112.379,195.248 109.386,193.064C106.377,190.912 103.95,192.077 104.694,187.191C105.438,182.256 104.338,180.509 107.687,177.758C111.069,175.024 111.829,173.422 114.256,174.62C116.699,175.801 118.365,175.801 119.902,174.426C121.391,173.05 124.19,173.617 124.19,171.869C124.19,170.106 121.003,170.106 121.391,167.177C121.747,164.184 123.268,165.786 123.818,160.868C124.368,155.949 120.258,148.491 116.133,149.478C111.991,150.448 105.649,156.16 104.338,153.587C103.012,151.047 100.391,152.212 95.327,153.992C90.263,155.771 69.278,152.244 67.79,150.448C67.79,150.448 64.214,147.908 62.338,149.283C60.477,150.659 52.97,150.06 50.721,149.688C48.456,149.283 46.401,152.228 43.619,151.257C40.771,150.27 30.853,148.297 28.621,146.727C26.339,145.142 22.958,145.142 21.502,144.365C19.997,143.572 14.545,143.184 13.445,144.753C12.312,146.323 8.187,149.057 6.116,151.031C4.061,153.005 1.65,152.616 3.689,156.742C5.744,160.868 -1.553,163.424 0.307,167.922C2.168,172.419 -0.065,184.602 7.426,186.964C14.933,189.326 21.114,190.702 25.417,187.191C29.753,183.631 36.306,183.631 38.36,187.563C40.415,191.494 41.548,197.384 48.278,200.716C55.009,204.065 60.833,213.692 60.461,217.979C60.105,222.315 60.671,236.634 67.563,244.885C74.52,253.136 81.639,268.086 82.173,264.526C82.739,260.983 82.739,257.44 84.26,260.012C85.732,262.569 89.68,270.432 96.055,271.807C102.445,273.182 105.633,273.57 108.043,275.949C110.47,278.311 112.557,279.67 115.162,280.867C117.783,282.032 124.157,285.591 125.468,287.937C126.795,290.299 126.228,293.438 124.902,296.981C123.607,300.525 122.103,304.052 123.963,307.401C125.856,310.733 129.788,320.36 132.991,322.512C136.178,324.696 139.333,328.223 138.589,333.125C137.845,338.027 134.286,359.044 134.658,363.768C135.046,368.46 130.37,383.976 134.108,390.269C137.845,396.547 144.252,398.521 147.051,397.712C149.85,396.951 147.617,396.725 146.29,393.796C144.98,390.836 145.158,387.098 146.662,384.364C148.183,381.614 148.183,380.044 147.423,376.906C146.662,373.767 147.051,371.987 148.911,369.641C150.804,367.279 158.667,361.002 161.11,358.251C163.521,355.501 178.923,336.636 180.978,335.067C183.033,333.497 187.709,329.76 189.229,323.887C190.734,318.014 196.154,306.414 192.417,303.453C188.663,300.492 174.798,298.308 174.231,297.92Z" style="fill:rgb(40,124,161);fill-rule:nonzero;"/>
            <path d="M211.702,132.182C212.77,130.095 215.358,124.869 216.75,122.006L157.373,122.006C158.085,125.161 160.657,136.874 160.172,141.615C159.606,147.115 161.304,145.158 162.793,147.326C164.298,149.494 163.925,152.843 162.987,155.367C162.032,157.923 161.482,163.634 164.508,170.316C167.485,176.982 171.044,185.427 174.037,185.832C177.063,186.204 176.302,190.54 178.373,188.954C180.428,187.369 180.784,183.874 182.499,178.745C184.182,173.665 184.182,169.912 188.501,167.355C192.821,164.799 204.794,156.564 207.415,153.603C210.052,150.642 213.045,149.478 212.106,144.381C211.136,139.269 210.213,135.143 211.702,132.182Z" style="fill:rgb(40,124,161);fill-rule:nonzero;"/>
            <path d="M504.04,155.367C501.791,153.797 488.314,143.006 482.49,144.381C476.714,145.756 466.391,141.226 464.693,140.256C463.01,139.269 449.161,135.014 441.848,134.755C438.208,134.625 422.919,131.212 416.544,128.477C410.153,125.711 404.75,112.169 392.567,114.337C390.997,114.628 376.275,116.699 372.521,120.048C368.8,123.397 367.085,127.296 365.03,128.089C362.975,128.882 356.973,128.477 356.973,131.438C356.973,134.383 359.044,143.427 356.617,141.647C354.174,139.883 351.731,135.758 350.631,138.913C349.515,142.068 347.589,143.815 346.489,142.634C345.389,141.453 339.726,142.634 338.998,144.592C338.238,146.565 330.941,151.063 327.77,151.678C324.583,152.26 323.256,153.83 321.573,154.623C319.891,155.399 307.126,161.304 304.715,159.136C302.272,156.985 301.528,158.36 300.023,158.748C300.023,158.748 295.525,157.955 292.726,154.428C289.895,150.901 289.345,152.066 286.158,148.733C282.987,145.4 282.226,142.068 279.055,143.443C275.884,144.802 262.391,158.732 257.133,165.026C251.907,171.319 242.523,177.791 247.199,182.289C251.907,186.803 254.317,186.22 254.9,188.76C255.482,191.3 256.032,194.067 256.777,195.054C257.521,196.057 262.002,199.568 264.267,194.86C266.549,190.135 266.888,186.803 269.509,187.595C272.13,188.372 272.681,190.152 271.354,193.679C270.043,197.238 269.121,202.723 264.623,202.512C260.142,202.318 255.272,199.568 253.751,200.166C252.263,200.749 251.357,202.124 249.642,203.499C247.959,204.874 242.701,211.33 239.142,212.333C235.598,213.32 231.295,212.511 233.722,215.455C236.148,218.4 239.708,224.888 236.343,224.677C232.977,224.483 227.347,223.901 226.975,227.234C226.603,230.567 225.114,232.54 225.859,234.886C226.603,237.249 229.046,241.779 232.023,240.193C235.064,238.608 240.856,237.071 242.345,233.511C243.85,229.968 245.548,226.069 249.286,226.263C253.023,226.457 262.035,231.359 261.452,233.139C260.902,234.886 259.042,239.028 261.274,237.653C263.523,236.262 265.384,234.692 266.694,234.11C268.005,233.511 269.736,236.084 270.27,237.071C270.82,238.074 274.59,240.015 275.318,236.844C276.078,233.722 276.822,236.084 279.055,237.071C281.32,238.074 288.051,238.818 288.957,239.611C289.927,240.403 291.982,242.749 289.345,245.904C286.724,249.027 283.715,250.24 279.411,247.878C275.091,245.516 270.399,249.852 265.578,247.474C260.676,245.128 262.941,241.795 257.133,239.433C251.357,237.071 238.219,240.015 234.077,241.196C229.952,242.361 229.774,242.766 228.091,244.723C226.409,246.697 215.358,259.446 215.358,266.71C215.358,273.959 219.468,293.632 232.767,291.658C246.082,289.685 254.139,290.85 252.651,294.765C251.13,298.713 251.907,299.699 254.334,304.197C256.76,308.711 262.407,338.772 263.329,343.658C264.3,348.576 262.601,354.837 268.781,353.867C274.994,352.88 281.53,351.327 284.135,345.632C286.772,339.92 287.177,333.465 290.542,330.132C293.924,326.783 298.033,326.783 298.389,322.075C298.745,317.351 297.451,306.171 299.699,303.582C301.964,301.058 312.432,289.248 313.549,284.54C314.681,279.832 316.17,278.651 311.866,278.651C307.562,278.651 300.25,278.084 298.162,274.153C296.108,270.27 291.222,262.811 291.222,261.048C291.222,259.301 294.231,259.478 295.703,263.2C297.224,266.921 302.434,278.149 308.436,275.755C314.438,273.392 322.884,270.658 323.062,266.921C323.24,263.2 320.441,258.88 317.432,259.09C314.406,259.301 311.235,257.116 311.235,254.965C311.235,252.813 311.785,253.606 315.361,254.965C318.936,256.34 320.036,258.686 325.489,259.09C330.925,259.478 337.105,264.785 340.082,267.147C343.091,269.509 348.317,285.624 349.644,287.177C350.938,288.762 352.491,288.762 353.786,285.608C355.096,282.453 360.71,272.454 363.914,269.687C367.085,266.937 367.279,263.216 369.123,265.578C371,267.94 379.057,273.813 379.624,277.356C380.19,280.899 379.251,288.552 380.934,286.19C382.617,283.828 383.943,278.942 385.399,281.11C386.92,283.278 386.92,286.611 390.464,284.054C394.039,281.53 400.219,280.527 396.854,275.026C393.489,269.526 395.738,266.193 397.825,265.982C399.88,265.772 413.939,263.232 414.311,255.563C414.683,247.911 409.425,243.785 411.917,239.853C414.311,235.922 417.887,232.395 418.647,234.741C419.392,237.103 416.771,244.756 420.136,243.575C423.517,242.41 427.449,242.41 427.449,240.031C427.449,237.653 426.688,231.764 428.209,230.211C429.714,228.641 440.748,218.254 442.058,214.129C443.369,209.987 445.812,206.46 443.741,203.337C441.67,200.199 438.127,201.153 440.926,197.254C443.741,193.323 448.433,189.682 451.992,189.391C463.366,188.388 460.163,202.464 460.357,205.602C460.567,208.741 460.567,216.604 462.233,212.673C463.916,208.757 465.874,203.92 469.255,200.587C472.637,197.27 474.497,195.086 474.707,192.158C474.902,189.213 475.047,188.226 478.267,186.657C481.454,185.071 495.497,179.57 496.808,175.866C498.118,172.144 495.125,168.779 498.491,169.006C501.856,169.184 505.043,172.905 506.742,170.947C508.424,169.006 512.178,165.462 511.984,163.489C511.757,161.45 506.321,156.936 504.04,155.367Z" style="fill:rgb(40,124,161);fill-rule:nonzero;"/>
            <path d="M443.547,221.328C442.414,223.901 441.864,224.305 440.182,229.612C438.467,234.886 439.033,233.511 437.334,236.844C435.651,240.193 432.869,240.565 430.053,242.749C427.206,244.917 426.462,249.221 426.462,249.221C424.035,252.554 436.396,244.497 440.699,241.957C445.019,239.4 443.903,236.456 444.275,232.33C444.647,228.188 445.812,227.606 447.64,225.842C449.501,224.079 448.012,220.536 447.122,217.996C446.152,215.455 444.647,218.805 443.547,221.328Z" style="fill:rgb(40,124,161);fill-rule:nonzero;"/>
            <path d="M405.122,310.507C406.432,309.504 405.478,307.368 407.532,307.74C409.603,308.129 411.464,309.342 413.939,307.967C416.35,306.575 418.421,307.158 418.049,304.812C417.693,302.466 418.049,299.327 417.499,297.37C416.932,295.396 413.567,294.797 411.124,296.981C408.681,299.166 405.332,302.498 405.332,301.301C405.332,300.136 406.804,296.981 406.06,295.024C405.332,293.066 406.432,291.303 402.695,292.856C398.941,294.441 396.887,294.037 395.576,296.205C394.282,298.389 392.761,302.094 390.528,299.748C388.296,297.402 381.711,292.5 381.711,292.5C381.177,291.901 373.686,285.802 376.307,289.943C378.912,294.069 382.859,301.139 384.736,303.679C386.581,306.236 388.651,309.196 390.917,307.821C393.165,306.43 393.538,306.058 396.547,307.821C399.475,309.52 403.811,311.494 405.122,310.507Z" style="fill:rgb(40,124,161);fill-rule:nonzero;"/>
            <path d="M451.038,304.99C447.446,303.421 448.951,302.045 444.631,301.285C440.311,300.525 436.784,301.285 435.619,300.508C434.487,299.716 428.889,297.758 429.633,300.508C430.393,303.275 435.441,304.035 436.752,304.812C438.062,305.605 434.875,307.384 437.285,308.743C439.712,310.103 441.427,312.675 444.598,311.882C447.786,311.073 448.918,312.869 451.507,313.257C454.144,313.63 456.765,312.869 455.681,311.656C454.548,310.507 453.82,308.905 453.998,307.546C454.193,306.171 454.581,306.575 451.038,304.99Z" style="fill:rgb(40,124,161);fill-rule:nonzero;"/>
            <path d="M449.161,322.479C447.85,318.548 444.663,311.316 443.935,314.827C443.175,318.354 438.127,320.894 436.218,320.7C434.503,320.506 435.473,318.742 435.473,317.14C435.473,315.571 434.487,314.018 430.215,315.199C425.879,316.364 424.989,320.489 423.825,320.117C422.724,319.729 419.699,318.936 417.855,321.104C415.978,323.272 414.263,327.398 412.046,328.191C409.781,328.983 402.274,329.938 402.274,333.109C402.274,336.248 404.167,340.956 403.973,343.512C403.779,346.068 400.365,351.941 404.911,353.737C407.532,354.756 409.393,354.902 412.435,353.349C415.428,351.78 428.338,347.654 430.053,349.013C431.736,350.388 434.454,353.608 435.668,354.303C438.046,355.727 438.693,359.012 441.88,359.804C445.019,360.597 447.494,360.969 448.789,360.969C450.115,360.969 454.775,359.4 455.907,356.649C457.04,353.883 459.095,347.411 460.033,344.273C461.02,341.134 461.894,337.607 459.095,334.84C456.296,332.106 450.471,326.411 449.161,322.479Z" style="fill:rgb(40,124,161);fill-rule:nonzero;"/>
        </g>
    </g>
</svg>
